<?xml version="1.0" standalone="no"?>
<!DOCTYPE svg PUBLIC "-//W3C//DTD SVG 20010904//EN"
 "http://www.w3.org/TR/2001/REC-SVG-20010904/DTD/svg10.dtd">
<svg version="1.0" xmlns="http://www.w3.org/2000/svg"
 width="337.000000pt" height="337.000000pt" viewBox="0 0 337.000000 337.000000"
 preserveAspectRatio="xMidYMid meet">
<metadata>
Created by potrace 1.14, written by Peter Selinger 2001-2017
</metadata>
<g transform="translate(0.000000,337.000000) scale(0.100000,-0.100000)"
fill="#000000" stroke="none">
<path d="M2328 2989 c-7 -4 -15 -6 -19 -3 -4 2 -20 -1 -35 -6 -18 -7 -37 -8
-55 -1 -20 7 -32 6 -46 -4 -14 -11 -15 -14 -3 -15 27 0 -18 -35 -48 -36 -56
-2 -63 -4 -57 -15 4 -6 13 -8 21 -5 33 13 20 -16 -20 -43 -51 -35 -59 -37 -76
-16 -7 9 -15 13 -18 11 -2 -3 -13 -1 -23 5 -25 13 -94 0 -120 -22 -12 -11 -26
-19 -30 -19 -5 0 -15 -13 -24 -29 -11 -23 -24 -31 -57 -37 -24 -4 -47 -7 -51
-6 -4 1 -18 -3 -30 -10 -12 -7 -31 -13 -42 -15 -10 -2 -30 -14 -43 -26 -13
-12 -26 -21 -28 -19 -6 4 -47 -25 -97 -68 -37 -32 -127 -159 -127 -179 0 -5
-9 -29 -20 -53 -11 -25 -21 -65 -22 -89 -1 -40 1 -67 18 -194 10 -71 75 -153
154 -194 30 -16 118 -29 208 -31 12 0 22 -4 22 -8 0 -5 -24 -35 -54 -68 -57
-61 -96 -127 -96 -161 0 -11 -11 -32 -25 -47 -29 -32 -30 -36 -10 -62 20 -26
19 -31 -10 -38 -33 -8 -59 -60 -57 -116 2 -47 29 -120 44 -120 22 0 4 -20 -29
-31 -115 -37 -168 -87 -179 -167 -4 -33 -2 -63 5 -78 13 -29 66 -54 113 -54
27 0 37 -6 52 -33 36 -62 46 -85 55 -128 5 -24 12 -51 15 -61 5 -12 1 -18 -16
-23 -59 -19 -142 -98 -137 -132 2 -16 -73 -41 -100 -34 -28 8 -128 7 -203 -3
-30 -4 -48 -2 -48 4 0 5 10 10 22 10 12 0 19 3 16 6 -3 3 -32 1 -64 -5 -33 -6
-77 -13 -99 -16 -38 -4 -105 -33 -105 -45 0 -3 20 -4 45 -2 30 3 45 0 45 -8 0
-8 12 -10 43 -4 54 10 201 6 205 -6 2 -5 15 -4 30 2 31 12 62 17 147 22 44 3
65 0 78 -12 12 -11 45 -17 105 -20 48 -2 99 -10 113 -17 68 -35 462 -47 609
-19 41 8 88 17 105 20 34 6 57 22 49 35 -3 5 -1 9 5 9 13 0 -17 88 -42 122
-11 15 -33 32 -48 38 -28 12 -38 29 -44 73 -1 12 -6 40 -10 62 -4 22 -9 48
-11 58 -1 9 -5 20 -8 25 -7 12 19 66 48 97 15 16 24 35 22 42 -3 7 -1 13 5 13
6 0 8 4 4 9 -3 5 -1 12 5 16 6 4 8 11 4 16 -3 5 -7 47 -9 92 -4 88 -25 190
-51 253 -9 21 -16 39 -15 39 1 0 -5 18 -14 39 -20 48 -24 65 -31 134 -4 41 -2
53 8 51 33 -4 37 1 27 33 -17 62 -11 87 29 124 20 19 46 37 57 40 11 4 32 15
48 26 15 11 27 17 27 14 0 -4 16 1 36 9 20 8 40 13 44 10 5 -3 24 2 43 11 33
16 35 16 76 -11 55 -37 136 -40 180 -7 17 12 34 22 38 22 14 0 96 95 111 129
19 44 21 53 23 116 5 168 -57 423 -125 510 -17 21 -30 42 -30 45 3 12 -77 118
-134 176 -62 64 -225 127 -264 103z"/>
<path d="M835 1838 c-28 -89 -65 -263 -65 -308 0 -41 -20 -101 -36 -107 -25
-9 -26 3 -5 70 23 75 36 166 22 152 -6 -6 -13 -26 -16 -45 -8 -45 -10 -46 -36
-21 -13 12 -33 22 -46 22 -35 2 -41 3 -49 12 -11 11 -42 9 -46 -4 -2 -6 -21
-12 -42 -15 -50 -4 -72 -24 -30 -25 16 -1 32 -1 36 0 9 1 22 -46 20 -72 -1
-27 -21 -47 -46 -47 -12 0 -31 -7 -42 -15 -12 -8 -43 -19 -70 -25 -72 -16
-120 -67 -130 -138 -4 -32 -1 -44 21 -70 14 -17 39 -34 56 -37 52 -12 159 -66
159 -81 0 -26 -52 -49 -115 -50 -87 -2 -87 -2 -80 -24 5 -15 3 -18 -8 -14 -8
3 -21 -2 -29 -10 -11 -11 -18 -12 -27 -3 -8 8 -14 3 -22 -21 -6 -17 -14 -31
-17 -31 -28 4 -33 -3 -27 -38 11 -63 26 -93 57 -109 l29 -15 -22 -30 c-47 -66
-17 -137 78 -185 75 -37 153 -38 246 -2 29 11 56 52 63 97 14 86 26 119 47
125 13 3 25 -1 33 -12 8 -9 14 -12 15 -7 0 6 2 21 3 35 2 17 -6 33 -26 51 -26
24 -29 31 -22 65 4 21 13 45 21 52 15 16 17 32 4 32 -12 0 5 54 27 88 11 16
18 20 25 13 15 -15 28 -14 26 2 -3 18 12 48 21 42 4 -3 10 2 14 10 3 8 17 15
32 15 19 0 25 4 20 15 -3 9 7 27 26 45 17 16 37 41 44 54 11 22 9 28 -12 53
-13 15 -24 35 -24 44 0 8 -4 19 -9 25 -4 5 -11 21 -15 37 -5 20 -3 27 9 27 8
0 15 7 15 15 0 8 -2 15 -5 15 -3 0 -22 -7 -42 -15 -46 -19 -44 -20 -37 13 3
15 9 44 11 65 6 45 27 57 51 31 18 -20 84 -118 96 -144 4 -8 18 -35 31 -60 23
-44 27 -110 12 -176 -9 -39 -48 -106 -78 -135 -28 -28 -37 -49 -21 -49 36 0
124 145 139 226 11 65 7 140 -11 174 -9 18 -16 39 -16 46 0 7 -6 17 -13 21 -7
4 -33 44 -56 88 -24 44 -52 92 -62 106 -16 23 -23 58 -28 152 -1 20 -20 23
-26 5z m-188 -771 c24 -13 26 -23 11 -51 -7 -13 -13 -15 -21 -7 -6 6 -27 11
-47 11 -20 0 -39 3 -43 6 -7 7 9 25 38 42 25 14 35 14 62 -1z m-13 -126 c9 -1
-1 -72 -12 -83 -8 -8 -70 -20 -112 -22 -18 -1 -24 3 -21 14 2 8 9 34 15 58
l11 43 55 -5 c30 -3 59 -5 64 -5z"/>
<path d="M2489 490 c-8 -5 -42 -11 -74 -14 -33 -2 -61 -5 -62 -5 -2 -1 -3 -6
-3 -12 0 -6 6 -9 14 -6 8 3 30 9 49 12 30 6 35 4 34 -12 -2 -12 4 -17 18 -16
70 8 121 16 127 19 3 2 9 -1 11 -6 3 -6 4 -5 3 2 -1 7 -21 12 -51 13 -29 0
-50 5 -52 13 -3 7 1 10 11 6 9 -3 16 -4 16 -1 0 10 -27 15 -41 7z"/>
</g>
</svg>
